<svg xmlns="http://www.w3.org/2000/svg" id="S8.F3.pic1" class="ltx_picture ltx_centering" height="96.36" overflow="visible" version="1.1" viewBox="0 0 604.45 96.36" width="604.45"><style>
  /* Banner pre-dismissal (set above before paint -> no flash-then-hide) and
     reading-mode chrome hiding. */
  html[data-banner-dismissed] .ds-announcement { display: none; }
  html[data-reading-mode="enabled"] .ds-announcement,
  html[data-reading-mode="enabled"] .ds-site-footer { display: none; }
  /* Keep the announcement text dark on the Open-Blue band in both colour themes
     (otherwise it inherits the paper's warm-wash text in dark mode and washes out). */
  .ds-announcement-text { color: var(--arxiv-ink, #1c1a17); }
</style><g transform="translate(0,96.36) matrix(1 0 0 -1 0 0) translate(26.33,0) translate(0,46.25)"><g style="--ltx-stroke-color:#B3B3B3;--ltx-fill-color:#B3B3B3;--ltx-fg-color:#B3B3B3;" stroke-width="1.6pt" fill="#B3B3B3" stroke="#B3B3B3" color="#B3B3B3"><path style="fill:none" d="M 0 0 L 543.57 0"></path><g transform="matrix(1.0 0.0 0.0 1.0 539.37 0)" stroke-dasharray="none" stroke-dashoffset="0.0pt" stroke-linejoin="miter" stroke-width="1.44043pt"><path d="M 9.15 0 L 3.22 2.19 L 4.7 0 L 3.22 -2.19 Z"></path></g></g><g style="--ltx-stroke-color:#000000;--ltx-fill-color:#000000;" stroke="#000000" fill="#000000" stroke-width="0.4pt"><g style="--ltx-stroke-color:#000000;--ltx-fill-color:#000000;" transform="matrix(1.0 0.0 0.0 1.0 -21.72 -19.59)" fill="#000000" stroke="#000000"><foreignObject style="--ltx-fo-width:3.58em;--ltx-fo-height:0.63em;--ltx-fo-depth:0em;" width="43.43" height="7.69" transform="matrix(1 0 0 -1 0 7.69)" overflow="visible"><span class="ltx_foreignobject_container"><span class="ltx_foreignobject_content"><span id="S8.F3.pic1.1.1.1.1.1.1" class="ltx_text ltx_font_italic" style="font-size:80%;">Minimal</span></span></span></foreignObject></g><g style="--ltx-stroke-color:#000000;--ltx-fill-color:#000000;" transform="matrix(1.0 0.0 0.0 1.0 528.85 -19.59)" fill="#000000" stroke="#000000"><foreignObject style="--ltx-fo-width:3.68em;--ltx-fo-height:0.63em;--ltx-fo-depth:0em;" width="44.66" height="7.69" transform="matrix(1 0 0 -1 0 7.69)" overflow="visible"><span class="ltx_foreignobject_container"><span class="ltx_foreignobject_content"><span id="S8.F3.pic1.2.2.2.2.1.1" class="ltx_text ltx_font_italic" style="font-size:80%;">Maximal</span></span></span></foreignObject></g><g style="--ltx-fill-color:#9B59B6;" fill="#9B59B6"><path style="stroke:none" d="M 38.39 0 C 38.39 5.98 33.54 10.83 27.56 10.83 C 21.58 10.83 16.73 5.98 16.73 0 C 16.73 -5.98 21.58 -10.83 27.56 -10.83 C 33.54 -10.83 38.39 -5.98 38.39 0 Z M 27.56 0"></path></g><g style="--ltx-stroke-color:#FFFFFF;--ltx-fill-color:#FFFFFF;" transform="matrix(1.0 0.0 0.0 1.0 24.94 -2.23)" fill="#FFFFFF" stroke="#FFFFFF"><foreignObject style="--ltx-fg-color:#FFFFFF;--ltx-fo-width:0.5em;--ltx-fo-height:0.42em;--ltx-fo-depth:0em;" width="5.25" height="4.46" transform="matrix(1 0 0 -1 0 4.46)" overflow="visible" color="#FFFFFF"><span class="ltx_foreignobject_container"><span class="ltx_foreignobject_content"><span id="S8.F3.pic1.3.3.3.3.1.1" class="ltx_text ltx_font_bold" style="font-size:50%;">1</span></span></span></foreignObject></g><g style="--ltx-stroke-color:#000000;--ltx-fill-color:#000000;" transform="matrix(1.0 0.0 0.0 1.0 -14.05 22.6)" fill="#000000" stroke="#000000"><foreignObject style="--ltx-fo-width:8.62em;--ltx-fo-height:0.68em;--ltx-fo-depth:0.19em;" width="83.52" height="8.5" transform="matrix(1 0 0 -1 0 6.62)" overflow="visible"><span class="ltx_foreignobject_container"><span class="ltx_foreignobject_content"><span id="S8.F3.pic1.4.4.4.4.1.1" class="ltx_text ltx_font_smallcaps" style="font-size:70%;">Mini-SWE-Agent</span></span></span></foreignObject></g><g style="--ltx-fill-color:#34495E;" fill="#34495E"><path style="stroke:none" d="M 85.63 0 C 85.63 5.98 80.78 10.83 74.8 10.83 C 68.82 10.83 63.98 5.98 63.98 0 C 63.98 -5.98 68.82 -10.83 74.8 -10.83 C 80.78 -10.83 85.63 -5.98 85.63 0 Z M 74.8 0"></path></g><g style="--ltx-stroke-color:#FFFFFF;--ltx-fill-color:#FFFFFF;" transform="matrix(1.0 0.0 0.0 1.0 72.18 -2.23)" fill="#FFFFFF" stroke="#FFFFFF"><foreignObject style="--ltx-fg-color:#FFFFFF;--ltx-fo-width:0.5em;--ltx-fo-height:0.42em;--ltx-fo-depth:0em;" width="5.25" height="4.46" transform="matrix(1 0 0 -1 0 4.46)" overflow="visible" color="#FFFFFF"><span class="ltx_foreignobject_container"><span class="ltx_foreignobject_content"><span id="S8.F3.pic1.5.5.5.5.1.1" class="ltx_text ltx_font_bold" style="font-size:50%;">7</span></span></span></foreignObject></g><g style="--ltx-stroke-color:#000000;--ltx-fill-color:#000000;" transform="matrix(1.0 0.0 0.0 1.0 69.52 37.65)" fill="#000000" stroke="#000000"><foreignObject style="--ltx-fo-width:1.09em;--ltx-fo-height:0.68em;--ltx-fo-depth:0em;" width="10.57" height="6.62" transform="matrix(1 0 0 -1 0 6.62)" overflow="visible"><span class="ltx_foreignobject_container"><span class="ltx_foreignobject_content"><span id="S8.F3.pic1.6.6.6.6.1.1" class="ltx_text ltx_font_smallcaps" style="font-size:70%;">Pi</span></span></span></foreignObject></g><g style="--ltx-fill-color:#FF7000;" fill="#FF7000"><path style="stroke:none" d="M 130.07 0 C 130.07 6.61 124.72 11.96 118.11 11.96 C 111.5 11.96 106.15 6.61 106.15 0 C 106.15 -6.61 111.5 -11.96 118.11 -11.96 C 124.72 -11.96 130.07 -6.61 130.07 0 Z M 118.11 0"></path></g><g style="--ltx-stroke-color:#FFFFFF;--ltx-fill-color:#FFFFFF;" transform="matrix(1.0 0.0 0.0 1.0 112.86 -2.23)" fill="#FFFFFF" stroke="#FFFFFF"><foreignObject style="--ltx-fg-color:#FFFFFF;--ltx-fo-width:1em;--ltx-fo-height:0.42em;--ltx-fo-depth:0em;" width="10.49" height="4.46" transform="matrix(1 0 0 -1 0 4.46)" overflow="visible" color="#FFFFFF"><span class="ltx_foreignobject_container"><span class="ltx_foreignobject_content"><span id="S8.F3.pic1.7.7.7.7.1.1" class="ltx_text ltx_font_bold" style="font-size:50%;">12</span></span></span></foreignObject></g><g style="--ltx-stroke-color:#000000;--ltx-fill-color:#000000;" transform="matrix(1.0 0.0 0.0 1.0 87.8 21.85)" fill="#000000" stroke="#000000"><foreignObject style="--ltx-fo-width:6.23em;--ltx-fo-height:0.69em;--ltx-fo-depth:0em;" width="60.32" height="6.73" transform="matrix(1 0 0 -1 0 6.73)" overflow="visible"><span class="ltx_foreignobject_container"><span class="ltx_foreignobject_content"><span id="S8.F3.pic1.8.8.8.8.1.1" class="ltx_text ltx_font_smallcaps" style="font-size:70%;">Mistral Vibe</span></span></span></foreignObject></g><g style="--ltx-fill-color:#2ECC71;" fill="#2ECC71"><path style="stroke:none" d="M 169.44 0 C 169.44 6.61 164.09 11.96 157.48 11.96 C 150.87 11.96 145.52 6.61 145.52 0 C 145.52 -6.61 150.87 -11.96 157.48 -11.96 C 164.09 -11.96 169.44 -6.61 169.44 0 Z M 157.48 0"></path></g><g style="--ltx-stroke-color:#FFFFFF;--ltx-fill-color:#FFFFFF;" transform="matrix(1.0 0.0 0.0 1.0 152.23 -2.23)" fill="#FFFFFF" stroke="#FFFFFF"><foreignObject style="--ltx-fg-color:#FFFFFF;--ltx-fo-width:1em;--ltx-fo-height:0.42em;--ltx-fo-depth:0em;" width="10.49" height="4.46" transform="matrix(1 0 0 -1 0 4.46)" overflow="visible" color="#FFFFFF"><span class="ltx_foreignobject_container"><span class="ltx_foreignobject_content"><span id="S8.F3.pic1.9.9.9.9.1.1" class="ltx_text ltx_font_bold" style="font-size:50%;">13</span></span></span></foreignObject></g><g style="--ltx-stroke-color:#000000;--ltx-fill-color:#000000;" transform="matrix(1.0 0.0 0.0 1.0 144.15 38.78)" fill="#000000" stroke="#000000"><foreignObject style="--ltx-fo-width:2.75em;--ltx-fo-height:0.69em;--ltx-fo-depth:0em;" width="26.66" height="6.73" transform="matrix(1 0 0 -1 0 6.73)" overflow="visible"><span class="ltx_foreignobject_container"><span class="ltx_foreignobject_content"><span id="S8.F3.pic1.10.10.10.10.1.1" class="ltx_text ltx_font_smallcaps" style="font-size:70%;">Aider</span></span></span></foreignObject></g><g style="--ltx-fill-color:#C0392B;" fill="#C0392B"><path style="stroke:none" d="M 208.81 0 C 208.81 6.61 203.46 11.96 196.85 11.96 C 190.24 11.96 184.89 6.61 184.89 0 C 184.89 -6.61 190.24 -11.96 196.85 -11.96 C 203.46 -11.96 208.81 -6.61 208.81 0 Z M 196.85 0"></path></g><g style="--ltx-stroke-color:#FFFFFF;--ltx-fill-color:#FFFFFF;" transform="matrix(1.0 0.0 0.0 1.0 191.6 -2.23)" fill="#FFFFFF" stroke="#FFFFFF"><foreignObject style="--ltx-fg-color:#FFFFFF;--ltx-fo-width:1em;--ltx-fo-height:0.42em;--ltx-fo-depth:0em;" width="10.49" height="4.46" transform="matrix(1 0 0 -1 0 4.46)" overflow="visible" color="#FFFFFF"><span class="ltx_foreignobject_container"><span class="ltx_foreignobject_content"><span id="S8.F3.pic1.11.11.11.11.1.1" class="ltx_text ltx_font_bold" style="font-size:50%;">17</span></span></span></foreignObject></g><g style="--ltx-stroke-color:#000000;--ltx-fill-color:#000000;" transform="matrix(1.0 0.0 0.0 1.0 171.51 23.73)" fill="#000000" stroke="#000000"><foreignObject style="--ltx-fo-width:5.17em;--ltx-fo-height:0.69em;--ltx-fo-depth:0.19em;" width="50.08" height="8.61" transform="matrix(1 0 0 -1 0 6.73)" overflow="visible"><span class="ltx_foreignobject_container"><span class="ltx_foreignobject_content"><span id="S8.F3.pic1.12.12.12.12.1.1" class="ltx_text ltx_font_smallcaps" style="font-size:70%;">OpenCode</span></span></span></foreignObject></g><g style="--ltx-fill-color:#4A90D9;" fill="#4A90D9"><path style="stroke:none" d="M 248.18 0 C 248.18 6.61 242.83 11.96 236.22 11.96 C 229.61 11.96 224.26 6.61 224.26 0 C 224.26 -6.61 229.61 -11.96 236.22 -11.96 C 242.83 -11.96 248.18 -6.61 248.18 0 Z M 236.22 0"></path></g><g style="--ltx-stroke-color:#FFFFFF;--ltx-fill-color:#FFFFFF;" transform="matrix(1.0 0.0 0.0 1.0 230.97 -2.23)" fill="#FFFFFF" stroke="#FFFFFF"><foreignObject style="--ltx-fg-color:#FFFFFF;--ltx-fo-width:1em;--ltx-fo-height:0.42em;--ltx-fo-depth:0em;" width="10.49" height="4.46" transform="matrix(1 0 0 -1 0 4.46)" overflow="visible" color="#FFFFFF"><span class="ltx_foreignobject_container"><span class="ltx_foreignobject_content"><span id="S8.F3.pic1.13.13.13.13.1.1" class="ltx_text ltx_font_bold" style="font-size:50%;">25</span></span></span></foreignObject></g><g style="--ltx-stroke-color:#000000;--ltx-fill-color:#000000;" transform="matrix(1.0 0.0 0.0 1.0 208.11 23.73)" fill="#000000" stroke="#000000"><foreignObject style="--ltx-fo-width:5.77em;--ltx-fo-height:0.69em;--ltx-fo-depth:0.19em;" width="55.93" height="8.61" transform="matrix(1 0 0 -1 0 6.73)" overflow="visible"><span class="ltx_foreignobject_container"><span class="ltx_foreignobject_content"><span id="S8.F3.pic1.14.14.14.14.1.1" class="ltx_text ltx_font_smallcaps" style="font-size:70%;">OpenHands</span></span></span></foreignObject></g><g style="--ltx-fill-color:#E74C3C;" fill="#E74C3C"><path style="stroke:none" d="M 287.55 0 C 287.55 6.61 282.2 11.96 275.59 11.96 C 268.98 11.96 263.63 6.61 263.63 0 C 263.63 -6.61 268.98 -11.96 275.59 -11.96 C 282.2 -11.96 287.55 -6.61 287.55 0 Z M 275.59 0"></path></g><g style="--ltx-stroke-color:#FFFFFF;--ltx-fill-color:#FFFFFF;" transform="matrix(1.0 0.0 0.0 1.0 270.34 -2.23)" fill="#FFFFFF" stroke="#FFFFFF"><foreignObject style="--ltx-fg-color:#FFFFFF;--ltx-fo-width:1em;--ltx-fo-height:0.42em;--ltx-fo-depth:0em;" width="10.49" height="4.46" transform="matrix(1 0 0 -1 0 4.46)" overflow="visible" color="#FFFFFF"><span class="ltx_foreignobject_container"><span class="ltx_foreignobject_content"><span id="S8.F3.pic1.15.15.15.15.1.1" class="ltx_text ltx_font_bold" style="font-size:50%;">27</span></span></span></foreignObject></g><g style="--ltx-stroke-color:#000000;--ltx-fill-color:#000000;" transform="matrix(1.0 0.0 0.0 1.0 260.31 38.78)" fill="#000000" stroke="#000000"><foreignObject style="--ltx-fo-width:3.12em;--ltx-fo-height:0.69em;--ltx-fo-depth:0em;" width="30.26" height="6.73" transform="matrix(1 0 0 -1 0 6.73)" overflow="visible"><span class="ltx_foreignobject_container"><span class="ltx_foreignobject_content"><span id="S8.F3.pic1.16.16.16.16.1.1" class="ltx_text ltx_font_smallcaps" style="font-size:70%;">Codex</span></span></span></foreignObject></g><g style="--ltx-fill-color:#1A73E8;" fill="#1A73E8"><path style="stroke:none" d="M 338.73 0 C 338.73 6.61 333.38 11.96 326.77 11.96 C 320.17 11.96 314.81 6.61 314.81 0 C 314.81 -6.61 320.17 -11.96 326.77 -11.96 C 333.38 -11.96 338.73 -6.61 338.73 0 Z M 326.77 0"></path></g><g style="--ltx-stroke-color:#FFFFFF;--ltx-fill-color:#FFFFFF;" transform="matrix(1.0 0.0 0.0 1.0 321.53 -2.23)" fill="#FFFFFF" stroke="#FFFFFF"><foreignObject style="--ltx-fg-color:#FFFFFF;--ltx-fo-width:1em;--ltx-fo-height:0.42em;--ltx-fo-depth:0em;" width="10.49" height="4.46" transform="matrix(1 0 0 -1 0 4.46)" overflow="visible" color="#FFFFFF"><span class="ltx_foreignobject_container"><span class="ltx_foreignobject_content"><span id="S8.F3.pic1.17.17.17.17.1.1" class="ltx_text ltx_font_bold" style="font-size:50%;">35</span></span></span></foreignObject></g><g style="--ltx-stroke-color:#000000;--ltx-fill-color:#000000;" transform="matrix(1.0 0.0 0.0 1.0 298.32 21.85)" fill="#000000" stroke="#000000"><foreignObject style="--ltx-fo-width:5.88em;--ltx-fo-height:0.68em;--ltx-fo-depth:0em;" width="56.91" height="6.62" transform="matrix(1 0 0 -1 0 6.62)" overflow="visible"><span class="ltx_foreignobject_container"><span class="ltx_foreignobject_content"><span id="S8.F3.pic1.18.18.18.18.1.1" class="ltx_text ltx_font_smallcaps" style="font-size:70%;">Gemini CLI</span></span></span></foreignObject></g><g style="--ltx-fill-color:#D4A574;" fill="#D4A574"><path style="stroke:none" d="M 385.98 0 C 385.98 6.61 380.62 11.96 374.02 11.96 C 367.41 11.96 362.06 6.61 362.06 0 C 362.06 -6.61 367.41 -11.96 374.02 -11.96 C 380.62 -11.96 385.98 -6.61 385.98 0 Z M 374.02 0"></path></g><g style="--ltx-stroke-color:#FFFFFF;--ltx-fill-color:#FFFFFF;" transform="matrix(1.0 0.0 0.0 1.0 368.77 -2.23)" fill="#FFFFFF" stroke="#FFFFFF"><foreignObject style="--ltx-fg-color:#FFFFFF;--ltx-fo-width:1em;--ltx-fo-height:0.42em;--ltx-fo-depth:0em;" width="10.49" height="4.46" transform="matrix(1 0 0 -1 0 4.46)" overflow="visible" color="#FFFFFF"><span class="ltx_foreignobject_container"><span class="ltx_foreignobject_content"><span id="S8.F3.pic1.19.19.19.19.1.1" class="ltx_text ltx_font_bold" style="font-size:50%;">43</span></span></span></foreignObject></g><g style="--ltx-stroke-color:#000000;--ltx-fill-color:#000000;" transform="matrix(1.0 0.0 0.0 1.0 343.19 38.78)" fill="#000000" stroke="#000000"><foreignObject style="--ltx-fo-width:6.33em;--ltx-fo-height:0.69em;--ltx-fo-depth:0em;" width="61.36" height="6.73" transform="matrix(1 0 0 -1 0 6.73)" overflow="visible"><span class="ltx_foreignobject_container"><span class="ltx_foreignobject_content"><span id="S8.F3.pic1.20.20.20.20.1.1" class="ltx_text ltx_font_smallcaps" style="font-size:70%;">Claude Code</span></span></span></foreignObject></g><g style="--ltx-fill-color:#16A085;" fill="#16A085"><path style="stroke:none" d="M 441.09 0 C 441.09 6.61 435.74 11.96 429.13 11.96 C 422.53 11.96 417.17 6.61 417.17 0 C 417.17 -6.61 422.53 -11.96 429.13 -11.96 C 435.74 -11.96 441.09 -6.61 441.09 0 Z M 429.13 0"></path></g><g style="--ltx-stroke-color:#FFFFFF;--ltx-fill-color:#FFFFFF;" transform="matrix(1.0 0.0 0.0 1.0 423.89 -2.23)" fill="#FFFFFF" stroke="#FFFFFF"><foreignObject style="--ltx-fg-color:#FFFFFF;--ltx-fo-width:1em;--ltx-fo-height:0.42em;--ltx-fo-depth:0em;" width="10.49" height="4.46" transform="matrix(1 0 0 -1 0 4.46)" overflow="visible" color="#FFFFFF"><span class="ltx_foreignobject_container"><span class="ltx_foreignobject_content"><span id="S8.F3.pic1.21.21.21.21.1.1" class="ltx_text ltx_font_bold" style="font-size:50%;">69</span></span></span></foreignObject></g><g style="--ltx-stroke-color:#000000;--ltx-fill-color:#000000;" transform="matrix(1.0 0.0 0.0 1.0 411.23 21.85)" fill="#000000" stroke="#000000"><foreignObject style="--ltx-fo-width:3.7em;--ltx-fo-height:0.68em;--ltx-fo-depth:0em;" width="35.81" height="6.62" transform="matrix(1 0 0 -1 0 6.62)" overflow="visible"><span class="ltx_foreignobject_container"><span class="ltx_foreignobject_content"><span id="S8.F3.pic1.22.22.22.22.1.1" class="ltx_text ltx_font_smallcaps" style="font-size:70%;">Hermes</span></span></span></foreignObject></g><g style="--ltx-fill-color:#F39C12;" fill="#F39C12"><path style="stroke:none" d="M 514.2 0 C 514.2 7.84 507.84 14.2 500 14.2 C 492.16 14.2 485.8 7.84 485.8 0 C 485.8 -7.84 492.16 -14.2 500 -14.2 C 507.84 -14.2 514.2 -7.84 514.2 0 Z M 500 0"></path></g><g style="--ltx-stroke-color:#FFFFFF;--ltx-fill-color:#FFFFFF;" transform="matrix(1.0 0.0 0.0 1.0 492.13 -2.23)" fill="#FFFFFF" stroke="#FFFFFF"><foreignObject style="--ltx-fg-color:#FFFFFF;--ltx-fo-width:1.5em;--ltx-fo-height:0.42em;--ltx-fo-depth:0em;" width="15.74" height="4.46" transform="matrix(1 0 0 -1 0 4.46)" overflow="visible" color="#FFFFFF"><span class="ltx_foreignobject_container"><span class="ltx_foreignobject_content"><span id="S8.F3.pic1.23.23.23.23.1.1" class="ltx_text ltx_font_bold" style="font-size:50%;">109</span></span></span></foreignObject></g><g style="--ltx-stroke-color:#000000;--ltx-fill-color:#000000;" transform="matrix(1.0 0.0 0.0 1.0 474.96 25.97)" fill="#000000" stroke="#000000"><foreignObject style="--ltx-fo-width:5.17em;--ltx-fo-height:0.69em;--ltx-fo-depth:0.19em;" width="50.08" height="8.61" transform="matrix(1 0 0 -1 0 6.73)" overflow="visible"><span class="ltx_foreignobject_container"><span class="ltx_foreignobject_content"><span id="S8.F3.pic1.24.24.24.24.1.1" class="ltx_text ltx_font_smallcaps" style="font-size:70%;">OpenClaw</span></span></span></foreignObject></g><g style="--ltx-stroke-color:#000000;--ltx-fill-color:#000000;" transform="matrix(1.0 0.0 0.0 1.0 7.67 -26.7)" fill="#000000" stroke="#000000"><foreignObject style="--ltx-fo-width:4.22em;--ltx-fo-height:0.51em;--ltx-fo-depth:0.14em;" width="39.78" height="6.15" transform="matrix(1 0 0 -1 0 4.8)" overflow="visible"><span class="ltx_foreignobject_container"><span class="ltx_foreignobject_content"><span id="S8.F3.pic1.25.25.25.25.1.1" class="ltx_text" style="font-size:50%;">bash only</span></span></span></foreignObject></g><g style="--ltx-stroke-color:#000000;--ltx-fill-color:#000000;" transform="matrix(1.0 0.0 0.0 1.0 49.8 -29.47)" fill="#000000" stroke="#000000"><foreignObject style="--ltx-fo-width:5.34em;--ltx-fo-height:0.51em;--ltx-fo-depth:0.14em;" width="50.26" height="6.15" transform="matrix(1 0 0 -1 0 4.8)" overflow="visible"><span class="ltx_foreignobject_container"><span class="ltx_foreignobject_content"><span id="S8.F3.pic1.26.26.26.26.1.1" class="ltx_text" style="font-size:50%;">4 by default</span></span></span></foreignObject></g><g style="--ltx-stroke-color:#000000;--ltx-fill-color:#000000;" transform="matrix(1.0 0.0 0.0 1.0 132.21 -27.84)" fill="#000000" stroke="#000000"><foreignObject style="--ltx-fo-width:5.37em;--ltx-fo-height:0.51em;--ltx-fo-depth:0em;" width="50.54" height="4.8" transform="matrix(1 0 0 -1 0 4.8)" overflow="visible"><span class="ltx_foreignobject_container"><span class="ltx_foreignobject_content"><span id="S8.F3.pic1.27.27.27.27.1.1" class="ltx_text" style="font-size:50%;">edit formats</span></span></span></foreignObject></g><g style="--ltx-stroke-color:#000000;--ltx-fill-color:#000000;" transform="matrix(1.0 0.0 0.0 1.0 207.85 -40.29)" fill="#000000" stroke="#000000"><foreignObject style="--ltx-fo-width:6em;--ltx-fo-height:0.51em;--ltx-fo-depth:0.14em;" width="56.5" height="6.15" transform="matrix(1 0 0 -1 0 4.8)" overflow="visible"><span class="ltx_foreignobject_container"><span class="ltx_foreignobject_content"><span id="S8.F3.pic1.28.28.28.28.1.1" class="ltx_text" style="font-size:50%;">model presets</span></span></span></foreignObject></g><g style="--ltx-stroke-color:#000000;--ltx-fill-color:#000000;" transform="matrix(1.0 0.0 0.0 1.0 248.49 -27.84)" fill="#000000" stroke="#000000"><foreignObject style="--ltx-fo-width:5.7em;--ltx-fo-height:0.51em;--ltx-fo-depth:0.12em;" width="53.72" height="5.96" transform="matrix(1 0 0 -1 0 4.8)" overflow="visible"><span class="ltx_foreignobject_container"><span class="ltx_foreignobject_content"><span id="S8.F3.pic1.29.29.29.29.1.1" class="ltx_text" style="font-size:50%;">+ code mode</span></span></span></foreignObject></g><g style="--ltx-stroke-color:#000000;--ltx-fill-color:#000000;" transform="matrix(1.0 0.0 0.0 1.0 342.23 -40.29)" fill="#000000" stroke="#000000"><foreignObject style="--ltx-fo-width:6.78em;--ltx-fo-height:0.51em;--ltx-fo-depth:0.14em;" width="63.8" height="6.15" transform="matrix(1 0 0 -1 0 4.8)" overflow="visible"><span class="ltx_foreignobject_container"><span class="ltx_foreignobject_content"><span id="S8.F3.pic1.30.30.30.30.1.1" class="ltx_text" style="font-size:50%;">+ agents, tasks</span></span></span></foreignObject></g><g style="--ltx-stroke-color:#000000;--ltx-fill-color:#000000;" transform="matrix(1.0 0.0 0.0 1.0 399.73 -30.6)" fill="#000000" stroke="#000000"><foreignObject style="--ltx-fo-width:6.19em;--ltx-fo-height:0.51em;--ltx-fo-depth:0.14em;" width="58.33" height="6.15" transform="matrix(1 0 0 -1 0 4.8)" overflow="visible"><span class="ltx_foreignobject_container"><span class="ltx_foreignobject_content"><span id="S8.F3.pic1.31.31.31.31.1.1" class="ltx_text" style="font-size:50%;">toolset-scoped</span></span></span></foreignObject></g><g style="--ltx-stroke-color:#000000;--ltx-fill-color:#000000;" transform="matrix(1.0 0.0 0.0 1.0 477.27 -30.08)" fill="#000000" stroke="#000000"><foreignObject style="--ltx-fo-width:4.85em;--ltx-fo-height:0.51em;--ltx-fo-depth:0.12em;" width="45.69" height="5.96" transform="matrix(1 0 0 -1 0 4.8)" overflow="visible"><span class="ltx_foreignobject_container"><span class="ltx_foreignobject_content"><span id="S8.F3.pic1.32.32.32.32.1.1" class="ltx_text" style="font-size:50%;">+ channels</span></span></span></foreignObject></g></g></g></svg>