<svg xmlns="http://www.w3.org/2000/svg" id="A1.F11.pic1" class="ltx_picture ltx_centering" height="164.54" overflow="visible" version="1.1" viewBox="0 0 477.38 164.54" width="477.38"><style>
  /* Banner pre-dismissal (set above before paint -> no flash-then-hide) and
     reading-mode chrome hiding. */
  html[data-banner-dismissed] .ds-announcement { display: none; }
  html[data-reading-mode="enabled"] .ds-announcement,
  html[data-reading-mode="enabled"] .ds-site-footer { display: none; }
  /* Keep the announcement text dark on the Open-Blue band in both colour themes
     (otherwise it inherits the paper's warm-wash text in dark mode and washes out). */
  .ds-announcement-text { color: var(--arxiv-ink, #1c1a17); }
</style><g style="--ltx-stroke-color:#000000;--ltx-fill-color:#000000;" fill="#000000" stroke="#000000" stroke-width="0.4pt" transform="translate(0,164.54) matrix(1 0 0 -1 0 0)"><g style="--ltx-fill-color:#737373;" fill="#737373" fill-opacity="1.0"><path style="stroke:none" d="M 0 4.49 L 0 160.05 C 0 162.53 2.01 164.54 4.49 164.54 L 472.89 164.54 C 475.37 164.54 477.38 162.53 477.38 160.05 L 477.38 4.49 C 477.38 2.01 475.37 0 472.89 0 L 4.49 0 C 2.01 0 0 2.01 0 4.49 Z"></path></g><g style="--ltx-fill-color:#FAFAFA;" fill="#FAFAFA" fill-opacity="1.0"><path style="stroke:none" d="M 0.55 4.49 L 0.55 144.49 L 476.82 144.49 L 476.82 4.49 C 476.82 2.32 475.06 0.55 472.89 0.55 L 4.49 0.55 C 2.32 0.55 0.55 2.32 0.55 4.49 Z"></path></g><g style="--ltx-fill-color:#333333;" fill="#333333" fill-opacity="1.0"><path style="stroke:none" d="M 0.55 145.04 L 0.55 160.05 C 0.55 162.23 2.32 163.99 4.49 163.99 L 472.89 163.99 C 475.06 163.99 476.82 162.23 476.82 160.05 L 476.82 145.04 Z"></path></g><g fill-opacity="1.0" transform="matrix(1.0 0.0 0.0 1.0 10.03 151.4)"><foreignObject style="--ltx-fo-width:31.03em;--ltx-fo-height:0.63em;--ltx-fo-depth:0.18em;font-size:10pt;" height="11.07" overflow="visible" transform="matrix(1 0 0 -1 0 8.65)" width="429.37"><span class="ltx_foreignobject_container"><span class="ltx_foreignobject_content">
<span id="A1.F11.pic1.1" class="ltx_inline-block ltx_minipage ltx_align_bottom" style="width:31.03em;">
<span id="A1.F11.pic1.1.1" class="ltx_p"><span id="A1.F11.pic1.1.1.1" class="ltx_text ltx_font_bold" style="font-size:90%;--ltx-fg-color:#FFFFFF;">Skill offline-vulnerability-scan description</span></span>
</span></span></span></foreignObject></g><g fill-opacity="1.0" transform="matrix(1.0 0.0 0.0 1.0 10.03 11.72)"><foreignObject style="--ltx-fo-width:33.05em;--ltx-fo-height:9.01em;--ltx-fo-depth:0.22em;font-size:10pt;" class="ltx_minipage" height="127.76" overflow="visible" transform="matrix(1 0 0 -1 0 124.69)" width="31.48em"><span class="ltx_foreignobject_container"><span class="ltx_foreignobject_content"><pre id="A1.F11.pic1.2" class="ltx_verbatim ltx_font_typewriter" style="--ltx-fg-color:#000000;">Run a reproducible vulnerability scan for a dependency lockfile and save
the full scanner result as JSON for later normalization.
Expected input:
    - the audit plan containing the dependency lockfile path and desired
    JSON report path
    - the scanner/cache strategy, including any local Trivy cache
    directory if available
Output:
    - a JSON vulnerability report saved on disk plus a summary of total
    findings and counts by severity.
</pre></span></span></foreignObject></g></g></svg>